# xmcd
#
# Track frame offsets:
#	150
#	32272
#	52802
#	71787
#	97010
#	117582
#	146910
#	170742
#	200220
#	221650
#
# Disc length: 3586 seconds
#
# Revision: 0
# Processed by: cddbd v1.4PL0 Copyright (c) Steve Scherf et al.
# Submitted via: audiograbber 1.81.01
#
DISCID=9f0e000a
DTITLE=Jose Serrano and Antonio El Agujetas - Two Cries of Freedom
DYEAR=1998
DGENRE=Flamenco
TTITLE0=Bulerias
TTITLE1=Solea
TTITLE2=Alegrias
TTITLE3=Taranto
TTITLE4=Tangos
TTITLE5=Sequiriyas
TTITLE6=Bulerias
TTITLE7=Malaguenas
TTITLE8=Solea
TTITLE9=Fandangos
EXTD=
EXTT0=
EXTT1=
EXTT2=
EXTT3=
EXTT4=
EXTT5=
EXTT6=
EXTT7=
EXTT8=
EXTT9=
PLAYORDER=
